<?xml version="1.0" encoding="UTF-8" standalone="no"?>
<svg width="87px" height="87px" viewBox="0 0 87 87" version="1.1" xmlns="http://www.w3.org/2000/svg" xmlns:xlink="http://www.w3.org/1999/xlink" xmlns:sketch="http://www.bohemiancoding.com/sketch/ns">
    <!-- Generator: Sketch Beta 3.0.4 (8156) - http://www.bohemiancoding.com/sketch -->
    <title>desktop</title>
    <desc>Created with Sketch Beta.</desc>
    <defs></defs>
    <g id="Page-1" stroke="none" stroke-width="1" fill="none" fill-rule="evenodd" sketch:type="MSPage">
        <g id="desktop" sketch:type="MSArtboardGroup" transform="translate(-1016.000000, -3235.000000)">
            <rect id="Rectangle-3" stroke="#24C7F0" stroke-width="2" sketch:type="MSShapeGroup" x="917" y="3201" width="300" height="398"></rect>
            <path d="M1074.75672,3310.03541 C1072.8,3306.23895 1072.8,3301.3323 1072.8,3297.75 C1072.8,3295.04898 1071.87558,3292.55461 1070.32,3290.54479 L1070.32,3288.125 L1067.83194,3244.54541 C1067.68624,3241.99508 1065.51252,3240 1062.88,3240 L1057.92,3240 C1055.28748,3240 1053.11314,3241.99538 1052.96682,3244.54541 L1050.48,3288.125 L1050.48,3290.54539 C1048.92504,3292.55521 1048.00062,3295.04898 1048,3297.75 C1048,3302.91441 1049.94711,3307.64811 1053.48266,3311.07852 C1056.26708,3313.77984 1061.44749,3317 1070.32,3317 L1079,3317 L1074.75672,3310.03541 L1074.75672,3310.03541 Z M1065.14894,3288.125 L1055.25532,3288.125 L1055.80472,3278.5 L1064.59922,3278.5 L1065.14894,3288.125 L1065.14894,3288.125 Z M1062.6917,3245.13333 L1064.48936,3276.575 L1055.91489,3276.575 L1057.71287,3245.13333 L1062.6917,3245.13333 L1062.6917,3245.13333 Z M1053.2766,3298.07083 C1053.2769,3296.22163 1053.98644,3294.53545 1055.15104,3293.25833 L1066.10124,3293.25833 C1067.26584,3294.53545 1067.97568,3296.22163 1067.97568,3298.07083 C1067.97568,3302.05769 1067.9763,3307.69643 1070.42553,3312.50833 C1058.17629,3312.50833 1053.2766,3305.28958 1053.2766,3298.07083 L1053.2766,3298.07083 Z" id="Shape" fill="#24C7F0" sketch:type="MSShapeGroup"></path>
        </g>
    </g>
</svg>