<?xml version="1.0" encoding="UTF-8" standalone="no"?>
<svg width="87px" height="87px" viewBox="0 0 87 87" version="1.1" xmlns="http://www.w3.org/2000/svg" xmlns:xlink="http://www.w3.org/1999/xlink" xmlns:sketch="http://www.bohemiancoding.com/sketch/ns">
    <!-- Generator: Sketch Beta 3.0.4 (8156) - http://www.bohemiancoding.com/sketch -->
    <title>desktop</title>
    <desc>Created with Sketch Beta.</desc>
    <defs></defs>
    <g id="Page-1" stroke="none" stroke-width="1" fill="none" fill-rule="evenodd" sketch:type="MSPage">
        <g id="desktop" sketch:type="MSArtboardGroup" transform="translate(-697.000000, -3235.000000)">
            <g id="02" sketch:type="MSLayerGroup" transform="translate(599.000000, 3201.000000)">
                <rect id="Rectangle-3" stroke="#24C7F0" stroke-width="2" sketch:type="MSShapeGroup" x="0" y="0" width="300" height="398"></rect>
                <path d="M149.25,41.40625 L134.10324,41.40625 C133.267677,39.9676133 131.705,39 129.916667,39 L117.833333,39 C115.164125,39 113,41.1547969 113,43.8125 L113,58.25 C113,60.9077031 115.164125,63.0625 117.833333,63.0625 L129.916667,63.0625 C130.797542,63.0625 131.622229,62.8260859 132.333333,62.4164219 L132.333333,77.3282539 L129.929052,110.844609 C129.832687,112.17707 130.2985,113.489078 131.212604,114.466918 C132.126708,115.444758 133.408448,116 134.75,116 L149.25,116 C150.591552,116 151.872687,115.444758 152.787396,114.466918 C153.700896,113.489078 154.166406,112.17707 154.070948,110.844609 L151.666667,77.3282539 L151.666667,58.5146875 L154.283313,58.2542109 C156.856458,58.3588828 158.916667,60.4757812 158.916667,63.0625 C158.916667,65.7202031 161.080792,67.875 163.75,67.875 L166.166667,67.875 C168.835875,67.875 171,65.7202031 171,63.0625 C171,51.1211836 161.242406,41.40625 149.25,41.40625 L149.25,41.40625 Z M118,59 L118,44 L130,44 L130,59 L118,59 L118,59 Z M135,111 L137.321514,80 L147.678173,80 L150,111 L135,111 L135,111 Z M147,78 L137,78 L137,59.9882965 L147,59 L147,78 L147,78 Z M163.571429,63 C163.571429,57.6346786 159.222464,53.2857143 153.857143,53.2857143 L132,55.4714286 L132,46 L149,46 C158.388857,46 166,53.6111429 166,63 L163.571429,63 L163.571429,63 Z" id="Shape" fill="#24C7F0" sketch:type="MSShapeGroup"></path>
            </g>
        </g>
    </g>
</svg>